<mxfile host="Electron" modified="2024-10-20T14:32:00.664Z" agent="Mozilla/5.0 (Windows NT 10.0; Win64; x64) AppleWebKit/537.36 (KHTML, like Gecko) draw.io/22.1.18 Chrome/120.0.6099.199 Electron/28.1.2 Safari/537.36" etag="ZIwL1LDQ9ebWrVL9VrIN" version="22.1.18" type="device">
  <diagram name="Page-1" id="gcvyv8NCgNoXqOCld5Xr">
    <mxGraphModel dx="520" dy="338" grid="1" gridSize="10" guides="1" tooltips="1" connect="1" arrows="1" fold="1" page="1" pageScale="1" pageWidth="850" pageHeight="1100" math="0" shadow="0">
      <root>
        <mxCell id="0" />
        <mxCell id="1" parent="0" />
        <mxCell id="TS7b47Msa24AWvpmtkcy-6" style="edgeStyle=orthogonalEdgeStyle;rounded=0;orthogonalLoop=1;jettySize=auto;html=1;" edge="1" parent="1" source="TS7b47Msa24AWvpmtkcy-4">
          <mxGeometry relative="1" as="geometry">
            <mxPoint x="300" y="290" as="targetPoint" />
          </mxGeometry>
        </mxCell>
        <mxCell id="TS7b47Msa24AWvpmtkcy-4" value="" style="rounded=0;whiteSpace=wrap;html=1;" vertex="1" parent="1">
          <mxGeometry x="240" y="130" width="120" height="60" as="geometry" />
        </mxCell>
        <mxCell id="TS7b47Msa24AWvpmtkcy-2" style="edgeStyle=orthogonalEdgeStyle;rounded=0;orthogonalLoop=1;jettySize=auto;html=1;" edge="1" parent="1" source="TS7b47Msa24AWvpmtkcy-1">
          <mxGeometry relative="1" as="geometry">
            <mxPoint x="180" y="290" as="targetPoint" />
          </mxGeometry>
        </mxCell>
        <mxCell id="TS7b47Msa24AWvpmtkcy-1" value="" style="rounded=0;whiteSpace=wrap;html=1;" vertex="1" parent="1">
          <mxGeometry x="120" y="210" width="120" height="60" as="geometry" />
        </mxCell>
        <mxCell id="afRYetBMYNzm8ubsvo-l-1" value="" style="shape=waypoint;sketch=0;size=6;pointerEvents=1;points=[];fillColor=none;resizable=0;rotatable=0;perimeter=centerPerimeter;snapToPoint=1;" parent="1" vertex="1">
          <mxGeometry x="130" y="240" width="20" height="20" as="geometry" />
        </mxCell>
        <mxCell id="afRYetBMYNzm8ubsvo-l-3" value="" style="shape=waypoint;sketch=0;size=6;pointerEvents=1;points=[];fillColor=none;resizable=0;rotatable=0;perimeter=centerPerimeter;snapToPoint=1;" parent="1" vertex="1">
          <mxGeometry x="160" y="210" width="20" height="20" as="geometry" />
        </mxCell>
        <mxCell id="afRYetBMYNzm8ubsvo-l-4" value="" style="shape=waypoint;sketch=0;size=6;pointerEvents=1;points=[];fillColor=none;resizable=0;rotatable=0;perimeter=centerPerimeter;snapToPoint=1;" parent="1" vertex="1">
          <mxGeometry x="210" y="220" width="20" height="20" as="geometry" />
        </mxCell>
        <mxCell id="afRYetBMYNzm8ubsvo-l-5" value="" style="shape=waypoint;sketch=0;size=6;pointerEvents=1;points=[];fillColor=none;resizable=0;rotatable=0;perimeter=centerPerimeter;snapToPoint=1;" parent="1" vertex="1">
          <mxGeometry x="250" y="140" width="20" height="20" as="geometry" />
        </mxCell>
        <mxCell id="afRYetBMYNzm8ubsvo-l-6" value="" style="shape=waypoint;sketch=0;size=6;pointerEvents=1;points=[];fillColor=none;resizable=0;rotatable=0;perimeter=centerPerimeter;snapToPoint=1;" parent="1" vertex="1">
          <mxGeometry x="280" y="170" width="20" height="20" as="geometry" />
        </mxCell>
        <mxCell id="afRYetBMYNzm8ubsvo-l-7" value="" style="shape=waypoint;sketch=0;size=6;pointerEvents=1;points=[];fillColor=none;resizable=0;rotatable=0;perimeter=centerPerimeter;snapToPoint=1;strokeColor=#00CC00;" parent="1" vertex="1">
          <mxGeometry x="370" y="220" width="20" height="20" as="geometry" />
        </mxCell>
        <mxCell id="afRYetBMYNzm8ubsvo-l-8" value="" style="shape=waypoint;sketch=0;size=6;pointerEvents=1;points=[];fillColor=none;resizable=0;rotatable=0;perimeter=centerPerimeter;snapToPoint=1;" parent="1" vertex="1">
          <mxGeometry x="330" y="130" width="20" height="20" as="geometry" />
        </mxCell>
        <mxCell id="afRYetBMYNzm8ubsvo-l-9" value="" style="shape=waypoint;sketch=0;size=6;pointerEvents=1;points=[];fillColor=none;resizable=0;rotatable=0;perimeter=centerPerimeter;snapToPoint=1;strokeColor=#00CC00;" parent="1" vertex="1">
          <mxGeometry x="410" y="220" width="20" height="20" as="geometry" />
        </mxCell>
        <mxCell id="afRYetBMYNzm8ubsvo-l-13" value="Next prediction" style="text;html=1;align=center;verticalAlign=middle;resizable=0;points=[];autosize=1;strokeColor=none;fillColor=none;" parent="1" vertex="1">
          <mxGeometry x="450" y="360" width="100" height="30" as="geometry" />
        </mxCell>
        <mxCell id="afRYetBMYNzm8ubsvo-l-14" value="" style="shape=waypoint;sketch=0;size=6;pointerEvents=1;points=[];fillColor=none;resizable=0;rotatable=0;perimeter=centerPerimeter;snapToPoint=1;strokeColor=#00CC00;" parent="1" vertex="1">
          <mxGeometry x="450" y="180" width="20" height="20" as="geometry" />
        </mxCell>
        <mxCell id="afRYetBMYNzm8ubsvo-l-26" value="" style="shape=curlyBracket;whiteSpace=wrap;html=1;rounded=1;flipH=1;labelPosition=right;verticalLabelPosition=middle;align=left;verticalAlign=middle;rotation=90;" parent="1" vertex="1">
          <mxGeometry x="280" y="190" width="20" height="305" as="geometry" />
        </mxCell>
        <mxCell id="afRYetBMYNzm8ubsvo-l-27" value="Lookback window" style="text;html=1;align=center;verticalAlign=middle;resizable=0;points=[];autosize=1;strokeColor=none;fillColor=none;" parent="1" vertex="1">
          <mxGeometry x="230" y="360" width="120" height="30" as="geometry" />
        </mxCell>
        <mxCell id="afRYetBMYNzm8ubsvo-l-29" value="" style="shape=waypoint;sketch=0;size=6;pointerEvents=1;points=[];fillColor=#3333FF;resizable=0;rotatable=0;perimeter=centerPerimeter;snapToPoint=1;strokeColor=#0000FF;" parent="1" vertex="1">
          <mxGeometry x="500" y="210" width="20" height="20" as="geometry" />
        </mxCell>
        <mxCell id="TS7b47Msa24AWvpmtkcy-3" value="" style="shape=waypoint;sketch=0;size=6;pointerEvents=1;points=[];fillColor=none;resizable=0;rotatable=0;perimeter=centerPerimeter;snapToPoint=1;strokeColor=#FF0000;" vertex="1" parent="1">
          <mxGeometry x="170" y="300" width="20" height="20" as="geometry" />
        </mxCell>
        <mxCell id="TS7b47Msa24AWvpmtkcy-7" value="" style="shape=waypoint;sketch=0;size=6;pointerEvents=1;points=[];fillColor=none;resizable=0;rotatable=0;perimeter=centerPerimeter;snapToPoint=1;strokeColor=#FF0000;" vertex="1" parent="1">
          <mxGeometry x="290" y="300" width="20" height="20" as="geometry" />
        </mxCell>
        <mxCell id="TS7b47Msa24AWvpmtkcy-13" style="edgeStyle=orthogonalEdgeStyle;curved=1;rounded=0;orthogonalLoop=1;jettySize=auto;html=1;entryX=0.2;entryY=0.79;entryDx=0;entryDy=0;entryPerimeter=0;" edge="1" parent="1" source="TS7b47Msa24AWvpmtkcy-3" target="afRYetBMYNzm8ubsvo-l-29">
          <mxGeometry relative="1" as="geometry">
            <Array as="points">
              <mxPoint x="180" y="300" />
              <mxPoint x="510" y="300" />
            </Array>
          </mxGeometry>
        </mxCell>
        <mxCell id="TS7b47Msa24AWvpmtkcy-14" style="edgeStyle=orthogonalEdgeStyle;curved=1;rounded=0;orthogonalLoop=1;jettySize=auto;html=1;entryX=0.657;entryY=0.752;entryDx=0;entryDy=0;entryPerimeter=0;" edge="1" parent="1" source="TS7b47Msa24AWvpmtkcy-7" target="afRYetBMYNzm8ubsvo-l-29">
          <mxGeometry relative="1" as="geometry" />
        </mxCell>
        <mxCell id="TS7b47Msa24AWvpmtkcy-15" style="edgeStyle=orthogonalEdgeStyle;curved=1;rounded=0;orthogonalLoop=1;jettySize=auto;html=1;entryX=0.619;entryY=0.886;entryDx=0;entryDy=0;entryPerimeter=0;" edge="1" parent="1" target="afRYetBMYNzm8ubsvo-l-29">
          <mxGeometry relative="1" as="geometry">
            <mxPoint x="420" y="310" as="sourcePoint" />
          </mxGeometry>
        </mxCell>
        <mxCell id="TS7b47Msa24AWvpmtkcy-16" value="" style="endArrow=classic;startArrow=classic;html=1;rounded=0;curved=1;" edge="1" parent="1">
          <mxGeometry width="50" height="50" relative="1" as="geometry">
            <mxPoint x="230" y="290" as="sourcePoint" />
            <mxPoint x="250" y="290" as="targetPoint" />
          </mxGeometry>
        </mxCell>
        <mxCell id="TS7b47Msa24AWvpmtkcy-17" value="Stride" style="text;html=1;align=center;verticalAlign=middle;resizable=0;points=[];autosize=1;strokeColor=none;fillColor=none;" vertex="1" parent="1">
          <mxGeometry x="214" y="300" width="50" height="30" as="geometry" />
        </mxCell>
        <mxCell id="TS7b47Msa24AWvpmtkcy-18" value="Kernel" style="text;html=1;align=center;verticalAlign=middle;resizable=0;points=[];autosize=1;strokeColor=none;fillColor=none;" vertex="1" parent="1">
          <mxGeometry x="110" y="180" width="60" height="30" as="geometry" />
        </mxCell>
        <mxCell id="TS7b47Msa24AWvpmtkcy-19" style="edgeStyle=orthogonalEdgeStyle;curved=1;rounded=0;orthogonalLoop=1;jettySize=auto;html=1;entryX=0.81;entryY=0.681;entryDx=0;entryDy=0;entryPerimeter=0;" edge="1" parent="1" source="afRYetBMYNzm8ubsvo-l-7" target="afRYetBMYNzm8ubsvo-l-29">
          <mxGeometry relative="1" as="geometry">
            <Array as="points">
              <mxPoint x="380" y="260" />
              <mxPoint x="510" y="260" />
            </Array>
          </mxGeometry>
        </mxCell>
        <mxCell id="TS7b47Msa24AWvpmtkcy-20" style="edgeStyle=orthogonalEdgeStyle;curved=1;rounded=0;orthogonalLoop=1;jettySize=auto;html=1;entryX=0.314;entryY=0.871;entryDx=0;entryDy=0;entryPerimeter=0;" edge="1" parent="1" source="afRYetBMYNzm8ubsvo-l-9" target="afRYetBMYNzm8ubsvo-l-29">
          <mxGeometry relative="1" as="geometry">
            <Array as="points">
              <mxPoint x="420" y="250" />
              <mxPoint x="510" y="250" />
            </Array>
          </mxGeometry>
        </mxCell>
        <mxCell id="TS7b47Msa24AWvpmtkcy-21" style="edgeStyle=orthogonalEdgeStyle;curved=1;rounded=0;orthogonalLoop=1;jettySize=auto;html=1;entryX=0.086;entryY=0.586;entryDx=0;entryDy=0;entryPerimeter=0;" edge="1" parent="1" source="afRYetBMYNzm8ubsvo-l-14" target="afRYetBMYNzm8ubsvo-l-29">
          <mxGeometry relative="1" as="geometry">
            <Array as="points">
              <mxPoint x="460" y="220" />
            </Array>
          </mxGeometry>
        </mxCell>
      </root>
    </mxGraphModel>
  </diagram>
</mxfile>
